<svg id="Group_23549" data-name="Group 23549" xmlns="http://www.w3.org/2000/svg" width="220.549" height="435.072" viewBox="0 0 220.549 435.072">
  <g id="Group_23545" data-name="Group 23545" transform="translate(56.352 386.879)">
    <path id="Path_167632" data-name="Path 167632" d="M557.472,358.088s9.678-1.846,10.369,2.762,2.071,22.812-5.763,26.268-31.567,16.36-40.32,0c-3.8-7.086,8.062-8.294,17.74-14.746C545.61,368.3,539.036,358.547,557.472,358.088Z" transform="translate(-521.032 -347.027)" fill="#262240"/>
    <path id="Path_167633" data-name="Path 167633" d="M532.085,353.065l1.612,15.667,17.279-.919V354.448Z" transform="translate(-506.706 -353.065)" fill="#fec4ad"/>
    <path id="Path_167634" data-name="Path 167634" d="M550.095,361.308s.7,6.22-9.9,5.991c-8.53-.186-7.377-5.07-7.377-5.07l7.141-4.147Z" transform="translate(-505.825 -346.561)" fill="#fec4ad"/>
  </g>
  <g id="Group_23546" data-name="Group 23546" transform="translate(180.778 331.321)">
    <path id="Path_167635" data-name="Path 167635" d="M582.76,337.726s2.645-8.76,6.737-7.35,19.682,8.105,19.157,16.041-.1,33.037-17.34,33.211c-7.465.078-3.366-10.206-4.514-20.954C586.073,351.886,575.21,353.11,582.76,337.726Z" transform="translate(-568.895 -327.113)" fill="#262240"/>
    <path id="Path_167636" data-name="Path 167636" d="M575.222,343.835l13.6,5.411,6.673-14.631-11.008-5.747Z" transform="translate(-575.222 -328.868)" fill="#fec4ad"/>
    <path id="Path_167637" data-name="Path 167637" d="M588.011,331.371s5.419,2.106.673,10.734c-3.823,6.946-7.348,3.9-7.348,3.9l-.34-7.669Z" transform="translate(-567.737 -325.624)" fill="#fec4ad"/>
  </g>
  <path id="Path_167638" data-name="Path 167638" d="M527.009,284.641s-3.072,77.421.613,113.059a414.305,414.305,0,0,0,11.063,62.06,28.876,28.876,0,0,0,11.214,2,31.574,31.574,0,0,0,11.517-2s-1.228-47.314.618-81.106,2.455-39.941,2.455-39.941,8.6,41.783,20.893,52.843,58.983,26.422,58.983,26.422a22.192,22.192,0,0,0,5.38-9.524,45.5,45.5,0,0,0,1.385-11.366s-36.251-17.2-44.244-25.806,3.69-85.407,3.69-85.407l-12.907-10.447Z" transform="translate(-458.488 -66.814)" fill="#262262"/>
  <g id="Group_23548" data-name="Group 23548">
    <path id="Path_167639" data-name="Path 167639" d="M552.814,252.631l-7.364,24.18-19.088-17.591s.28-19.313-5.368-20.312c-2.562-.45-4.37,9.375-4.37,9.375s-14.523-17.4-18.718-11.738c-1.979,2.675-5.143,15.5,16.378,32.258C535.442,293.833,540.3,307.291,554,307.424c10.9.108,15.841-44.354,15.841-44.354Z" transform="translate(-496.49 -118.676)" fill="#fec4ad"/>
    <path id="Path_167640" data-name="Path 167640" d="M539.716,252.225a7.323,7.323,0,0,1,1.525,1.247v0a163.412,163.412,0,0,1-5.256,23.831c-12.135-8.624-18.172-17.164-18.172-17.164l11.671-11.871S537.162,250.916,539.716,252.225Z" transform="translate(-468.852 -102.008)" fill="#fab498"/>
    <path id="Path_167641" data-name="Path 167641" d="M610.8,364.858s8-95.611-3.483-115.279c-18.863-32.3-71.644-23.531-75.82,5.786s-7.607,73.368-6.73,110.366C524.933,372.979,597.431,373.59,610.8,364.858Z" transform="translate(-460.023 -126.93)" fill="#9c2a7b"/>
    <path id="Path_167642" data-name="Path 167642" d="M602,296.033c.381-8.3.723-17.751.879-27.448-28.929-.79-70.105-1.575-70.105-1.575S552.715,286.38,602,296.033Z" transform="translate(-449.456 -77.723)" fill="#a7a9ac" opacity="0.2" style="mix-blend-mode: multiply;isolation: isolate"/>
    <path id="Path_167643" data-name="Path 167643" d="M585.806,256.822l-1.874,16.245s-21.391-1.063-41.027-6.392l-5.293,16.213s51.925,14.218,65.825,9.2c8.089-2.923,5.437-31.62,5.437-31.62Z" transform="translate(-443.189 -90.928)" fill="#fec4ad"/>
    <path id="Path_167644" data-name="Path 167644" d="M558.746,261.529l-.294-1.706.344-3,23.069,3.646s.324,3.529.4,8.232C570.132,265.387,558.746,261.529,558.746,261.529Z" transform="translate(-416.179 -90.928)" fill="#fab498"/>
    <path id="Path_167645" data-name="Path 167645" d="M549.748,229.861s13.122,39.723,12.592,64.684c0,0,10.677,2.815,30.807.868C593.147,295.413,602.286,235.852,549.748,229.861Z" transform="translate(-427.461 -125.873)" fill="#9c2a7b"/>
    <path id="Path_167646" data-name="Path 167646" d="M563.129,230.163s-48.618-1.153-45.22,53.456c0,0,20.02,9.612,31.133,11.43Z" transform="translate(-468.948 -125.484)" fill="#9c2a7b"/>
    <path id="Path_167647" data-name="Path 167647" d="M612.1,267.383c5.678,0,11.267-.177,16.776-.487-4.048-15.676-14.532-32.391-40.455-35.815a49.357,49.357,0,0,0-29.609.512c-2.861.009-26.036.7-37.989,19.894C545.554,261.406,577.369,267.383,612.1,267.383Z" transform="translate(-464.955 -126.916)" fill="none" opacity="0.2" style="mix-blend-mode: multiply;isolation: isolate"/>
    <path id="Path_167648" data-name="Path 167648" d="M555.683,226.314s-22.3,0-23.209,12.287c-.87,11.834,5.919,17.29,5.919,17.29l17.744-8.645,17.747,8.645s8.193-5,7.736-14.56C581.013,228.571,572.522,224.039,555.683,226.314Z" transform="translate(-449.95 -131.201)" fill="#fff"/>
    <path id="Path_167649" data-name="Path 167649" d="M528.785,267.842c.923-6.838,21.411-1.075,21.411-1.075s-6.555-7.384-1.612-10.284c2.156-1.265,13.777,10.514,15.722,13.814a107.633,107.633,0,0,0-5.874,14.867C531.888,281.589,527.977,273.84,528.785,267.842Z" transform="translate(-454.753 -91.49)" fill="#fec4ad"/>
    <path id="Path_167650" data-name="Path 167650" d="M566.245,222.429l-.216,22.291s-12.266,11.028-28.371.23l-.794-22.807Z" transform="translate(-444.16 -135.878)" fill="#fec4ad"/>
    <path id="Path_167651" data-name="Path 167651" d="M566.105,237.166a43.025,43.025,0,0,1-11.157.861c-7.432-.335-13.219-2.3-17.756-5.272l-.328-10.613,29.381.287Z" transform="translate(-444.16 -135.878)" fill="#fab498"/>
    <g id="Group_23547" data-name="Group 23547" transform="translate(65.85)">
      <path id="Path_167652" data-name="Path 167652" d="M532.508,230.962s-3.568,2.517-6.7,3.008c0,0-5.045-31.108,13.161-41.613,25.657-14.8,53.784-3.947,53.784-3.947s12.828,2.96,18.92,22.367c3.7,11.818,1.311,27.634-2.964,43.1C602.6,275.98,585.355,276.9,574.5,271.964S532.508,230.962,532.508,230.962Z" transform="translate(-525.169 -184.572)" fill="#262240"/>
      <path id="Path_167653" data-name="Path 167653" d="M554.389,215.4l2.8-8.847s11.32-3.281,10.916,7.747-5.247,15.384-13.632,12.567Z" transform="translate(-487.295 -156.67)" fill="#fec4ad"/>
      <path id="Path_167654" data-name="Path 167654" d="M591.852,209.706s11.979,53.874-31,53.1c-43.1-.769-31.716-50.356-31.716-50.356s11.731-3.077,18.637-13.6c0,0,6.9,5.922,22.7,9.866C575.82,210.057,585.93,211.35,591.852,209.706Z" transform="translate(-521.794 -166.064)" fill="#fec4ad"/>
      <path id="Path_167655" data-name="Path 167655" d="M552.885,204.047s.822,19.9,3.621,20.4,3.782-13.322,3.782-13.322,1.807-5.1,1.646-5.593-2.3-3.453-2.3-3.453" transform="translate(-489.245 -161.887)" fill="#262240"/>
    </g>
  </g>
</svg>
