<svg xmlns="http://www.w3.org/2000/svg" xmlns:xlink="http://www.w3.org/1999/xlink" width="128.31" height="255.549" viewBox="0 0 128.31 255.549">
  <defs>
    <linearGradient id="linear-gradient" x1="2.555" y1="0.144" x2="2.555" y2="1.122" gradientUnits="objectBoundingBox">
      <stop offset="0" stop-color="#f3cb00"/>
      <stop offset="1" stop-color="#e6b300"/>
    </linearGradient>
  </defs>
  <g id="Group_25100" data-name="Group 25100" transform="translate(-47.404 -4052.957)">
    <g id="Group_25099" data-name="Group 25099" transform="translate(49.542 4239.841)" opacity="0.1">
      <g id="Group_16933" data-name="Group 16933" transform="translate(-2.138)">
        <path id="Path_151193" data-name="Path 151193" d="M310.949,177.69c-23.292,13.424-23.357,35.184-.308,48.579,23.072,13.427,60.507,13.427,83.8-.041,23.227-13.394,23.319-35.113.275-48.492C371.665,164.342,334.132,164.3,310.949,177.69Z" transform="translate(-293.417 -167.67)"/>
      </g>
    </g>
    <g id="Group_24401" data-name="Group 24401" transform="translate(16.411 3881.168)">
      <g id="Group_18446" data-name="Group 18446" transform="translate(38.906 234.13)">
        <path id="Path_156237" data-name="Path 156237" d="M136.847,201.692c22.563,13.035,22.678,34.144.269,47.17-22.43,13.026-58.856,13.026-81.416,0-22.576-13.038-22.69-34.135-.272-47.17C77.834,188.681,114.284,188.666,136.847,201.692Z" transform="translate(-38.691 -191.928)" fill="#eec200"/>
      </g>
      <path id="Path_156238" data-name="Path 156238" d="M136.847,201.692c-22.563-13.026-59.014-13.011-81.419,0-22.418,13.035-22.3,34.132.272,47.17,22.56,13.026,58.986,13.026,81.416,0C159.525,235.836,159.411,214.727,136.847,201.692Zm-7.129,42.929c-18.391,10.689-48.284,10.689-66.8,0s-18.6-28-.2-38.688c18.363-10.677,48.269-10.692,66.777,0S148.09,233.947,129.718,244.621Z" transform="translate(0.214 42.202)" fill="#ffe85f"/>
      <g id="Group_18448" data-name="Group 18448" transform="translate(50.551 179.602)">
        <path id="Path_156239" data-name="Path 156239" d="M54.874,175.878a.133.133,0,0,0-.028.105,2.172,2.172,0,0,1-.214.6c-.015.04-.043.081-.059.127a2.8,2.8,0,0,1-.415.594,4.738,4.738,0,0,1-.4.387,2.5,2.5,0,0,1-.356.313,6.773,6.773,0,0,1-1.8,1c-.1.046-.186.084-.3.127a10.076,10.076,0,0,1-2.1.526h-.071a10.489,10.489,0,0,1-2.306.059.166.166,0,0,0-.084-.016,7.8,7.8,0,0,1-2.124-.5,3.117,3.117,0,0,1-2.164-2.322L64.569,344.929a3.083,3.083,0,0,0,2.176,2.306,6.521,6.521,0,0,0,.938.31c.269.062.526.118.811.158.115.015.241.028.371.046h.1a.909.909,0,0,0,.2.025c.2.012.4.012.625.012l-.015-.056h0l.015.056H70.4c.2-.012.4-.037.613-.056.068-.012.142-.012.226-.028.028,0,.056-.016.087-.016.111-.012.214-.025.325-.04.214-.04.455-.087.684-.142.254-.059.511-.127.768-.214.118-.04.214-.087.331-.133.1-.037.2-.065.285-.108.183-.071.368-.142.523-.214a6.059,6.059,0,0,0,1.282-.783.375.375,0,0,0,.071-.059,1.437,1.437,0,0,0,.272-.257,3.191,3.191,0,0,0,.4-.4c.015,0,.031-.016.046-.028.111-.155.223-.313.337-.474.015-.025.015-.068.043-.1a.523.523,0,0,1,.043-.115,1.474,1.474,0,0,1,.1-.186,1.871,1.871,0,0,0,.115-.368v-.059a.88.88,0,0,1,.028-.084c.012-.09.028-.155.043-.229a2.67,2.67,0,0,0-.015-.353v-.062L54.89,175.24A2.6,2.6,0,0,1,54.874,175.878Z" transform="translate(-42.437 -172.37)" fill="#bc3a7d"/>
        <g id="Group_18447" data-name="Group 18447">
          <path id="Path_156240" data-name="Path 156240" d="M52.711,174.877c2.634,1.068,2.95,3.343.712,5.067a9.7,9.7,0,0,1-8.782,1.2c-2.619-1.083-2.931-3.359-.7-5.1A9.731,9.731,0,0,1,52.711,174.877Z" transform="translate(-42.453 -174.313)" fill="#db6ca5"/>
        </g>
      </g>
      <g id="Group_18450" data-name="Group 18450" transform="translate(86.64 171.789)">
        <path id="Path_156241" data-name="Path 156241" d="M66.531,173.357a.156.156,0,0,0-.015.084,2.443,2.443,0,0,1-.214.613,1.3,1.3,0,0,0-.071.13,3.29,3.29,0,0,1-.412.6,5.28,5.28,0,0,1-.4.381,2.453,2.453,0,0,1-.359.313,7.123,7.123,0,0,1-1.777,1c-.111.028-.2.084-.3.115a10.37,10.37,0,0,1-2.1.523c-.028,0-.074.015-.087.015a9.849,9.849,0,0,1-2.275.04h-.1a7.909,7.909,0,0,1-2.12-.5,3.139,3.139,0,0,1-2.176-2.319L76.223,342.4a3.172,3.172,0,0,0,2.179,2.306,5.349,5.349,0,0,0,.953.3,7.393,7.393,0,0,0,.8.17c.124.016.245.016.371.031a.346.346,0,0,0,.1.009.791.791,0,0,0,.2.016c.214.015.427.028.641.028l-.028-.068h0l.028.068c.186,0,.4,0,.613-.012.2-.015.412-.031.6-.056a1.154,1.154,0,0,0,.229-.016.192.192,0,0,1,.084-.015,2.075,2.075,0,0,0,.328-.056,5.425,5.425,0,0,0,.684-.13,6.443,6.443,0,0,0,.771-.214c.127-.04.223-.1.337-.127.087-.056.2-.084.288-.13a4.885,4.885,0,0,0,.511-.2,6.605,6.605,0,0,0,1.3-.777c.012-.028.053-.043.068-.059a1.958,1.958,0,0,0,.254-.254c.142-.13.3-.276.43-.4l.012-.025c.13-.158.229-.316.344-.47.012-.043.028-.074.043-.115a.448.448,0,0,0,.068-.115c.015-.056.059-.111.074-.17a1.433,1.433,0,0,0,.127-.384v-.046a.2.2,0,0,0,.015-.1c.016-.071.028-.142.04-.229s0-.226-.012-.356v-.056L66.544,172.716A2.493,2.493,0,0,1,66.531,173.357Z" transform="translate(-54.099 -169.846)" fill="#8e67cc"/>
        <g id="Group_18449" data-name="Group 18449">
          <path id="Path_156242" data-name="Path 156242" d="M64.38,172.353c2.616,1.065,2.928,3.346.693,5.064a9.739,9.739,0,0,1-8.767,1.2c-2.616-1.083-2.947-3.359-.709-5.1A9.769,9.769,0,0,1,64.38,172.353Z" transform="translate(-54.112 -171.789)" fill="#af91de"/>
        </g>
      </g>
      <g id="Group_18452" data-name="Group 18452" transform="translate(95.41 186.623)">
        <path id="Path_156243" data-name="Path 156243" d="M120.448,181.624a.667.667,0,0,0-.071.087,2.02,2.02,0,0,1-.443.452.8.8,0,0,0-.1.087,3.155,3.155,0,0,1-.625.356,3.1,3.1,0,0,1-.542.186,2.217,2.217,0,0,1-.44.142,7.459,7.459,0,0,1-2.052.127,1.085,1.085,0,0,1-.313-.031,8.946,8.946,0,0,1-2.124-.409.872.872,0,0,1-.1-.031,10.109,10.109,0,0,1-2.093-.926c-.015-.015-.059-.025-.071-.04a8.052,8.052,0,0,1-1.693-1.365,3.061,3.061,0,0,1-.984-3.018L57.048,338.627a3.127,3.127,0,0,0,.969,3.018,5.657,5.657,0,0,0,.74.7,6.239,6.239,0,0,0,.65.467,2.823,2.823,0,0,0,.316.2c.031.031.059.031.087.046a1.34,1.34,0,0,0,.17.111c.173.1.371.2.557.285l.028-.059h0l-.028.059c.183.1.371.17.566.26.189.065.384.152.585.207A1.133,1.133,0,0,0,61.9,344a.091.091,0,0,1,.071.028c.1.028.214.074.313.1.226.056.455.1.684.158a5.943,5.943,0,0,0,.783.127,2.934,2.934,0,0,0,.356.028,2.137,2.137,0,0,0,.31.031c.189,0,.387.028.573.028a7.537,7.537,0,0,0,1.492-.158.682.682,0,0,1,.09-.012,3.493,3.493,0,0,1,.341-.13,1.784,1.784,0,0,0,.523-.2H67.5a1.963,1.963,0,0,0,.486-.282c.053-.015.068-.062.1-.077s.08-.043.111-.068c.043-.043.1-.087.142-.13a1.828,1.828,0,0,0,.285-.3.054.054,0,0,0,.015-.031.488.488,0,0,1,.056-.084c.043-.071.1-.111.111-.189a1.184,1.184,0,0,0,.158-.322c.015-.016.015-.043.031-.074l51.742-161.39A2.064,2.064,0,0,1,120.448,181.624Z" transform="translate(-56.945 -175.198)" fill="#8e67cc"/>
        <g id="Group_18451" data-name="Group 18451" transform="translate(51.75)">
          <path id="Path_156244" data-name="Path 156244" d="M84.716,179.416c1.925,2.1,1.226,4.3-1.52,4.9a9.723,9.723,0,0,1-8.442-2.675c-1.922-2.108-1.241-4.287,1.523-4.9A9.753,9.753,0,0,1,84.716,179.416Z" transform="translate(-73.662 -176.581)" fill="#af91de"/>
        </g>
      </g>
      <g id="Group_18454" data-name="Group 18454" transform="translate(66.327 188.454)">
        <path id="Path_156245" data-name="Path 156245" d="M84.921,180.546a.135.135,0,0,1-.015.071,2.824,2.824,0,0,1-.384.526c-.028.031-.056.074-.084.1a3.992,3.992,0,0,1-.57.455,3.49,3.49,0,0,1-.517.272,2.637,2.637,0,0,1-.4.211,8.146,8.146,0,0,1-2.006.458,2.25,2.25,0,0,0-.316.028,12.592,12.592,0,0,1-2.176-.071.842.842,0,0,0-.084-.015,10.178,10.178,0,0,1-2.207-.6c-.031,0-.059-.012-.087-.012a7.873,7.873,0,0,1-1.891-1.083,3.119,3.119,0,0,1-1.464-2.817L47.57,345.682a3.162,3.162,0,0,0,1.452,2.82,6.034,6.034,0,0,0,.839.57c.214.127.455.238.712.368.118.043.245.1.371.142a.126.126,0,0,1,.056.028.871.871,0,0,0,.2.071c.2.071.387.146.582.2s.4.111.61.158a3.156,3.156,0,0,0,.6.115,1.327,1.327,0,0,0,.245.043c.028,0,.04.016.068.016.1.012.217.028.328.04.229.028.467.043.7.056a7.109,7.109,0,0,0,.811.015,2.936,2.936,0,0,1,.341-.043,2.444,2.444,0,0,0,.316-.028c.17-.012.368-.028.554-.056a6.588,6.588,0,0,0,1.436-.4c.043-.015.059-.015.1-.028.111-.059.229-.127.325-.186a2.878,2.878,0,0,0,.5-.272l.025-.012a3.6,3.6,0,0,0,.458-.356.328.328,0,0,1,.087-.087c.028-.043.043-.056.068-.1a.564.564,0,0,0,.142-.142,1.765,1.765,0,0,0,.217-.341c.028-.012.028-.012.04-.046a.123.123,0,0,1,.028-.065c.031-.077.071-.146.1-.22a2.271,2.271,0,0,0,.084-.353.1.1,0,0,1,.015-.059L85.134,179.921A1.83,1.83,0,0,1,84.921,180.546Z" transform="translate(-47.549 -175.286)" fill="#4d9b12"/>
        <g id="Group_18453" data-name="Group 18453" transform="translate(25.159)">
          <path id="Path_156246" data-name="Path 156246" d="M66.651,178.991c2.223,1.749,1.894,4.024-.727,5.08a9.771,9.771,0,0,1-8.767-1.294c-2.235-1.764-1.891-4.027.712-5.08A9.767,9.767,0,0,1,66.651,178.991Z" transform="translate(-55.677 -177.173)" fill="#73c139"/>
        </g>
      </g>
      <g id="Group_18456" data-name="Group 18456" transform="translate(106.957 172.556)">
        <path id="Path_156247" data-name="Path 156247" d="M75.066,173.97a.322.322,0,0,1-.028.071,3.129,3.129,0,0,1-.285.566.5.5,0,0,0-.087.118c-.142.17-.313.356-.5.539a3.443,3.443,0,0,1-.455.331c-.127.084-.241.183-.384.269a8.157,8.157,0,0,1-1.922.709c-.111.028-.2.059-.3.074a11.183,11.183,0,0,1-2.176.226h-.084a9.322,9.322,0,0,1-2.281-.285.115.115,0,0,1-.068-.015,6.963,6.963,0,0,1-2.024-.8,3.125,3.125,0,0,1-1.833-2.588L60.675,342.659a3.178,3.178,0,0,0,1.839,2.606c.282.155.579.3.895.443.245.1.5.17.768.257a1.964,1.964,0,0,0,.371.1c.015,0,.043.015.068.015a.935.935,0,0,0,.2.043,5.549,5.549,0,0,0,.613.13c.211.028.412.043.61.071a5.475,5.475,0,0,0,.628.025.647.647,0,0,0,.245,0,.09.09,0,0,0,.068,0,1.057,1.057,0,0,0,.313,0,6.245,6.245,0,0,0,.7-.025c.288-.028.542-.059.827-.1a3.274,3.274,0,0,1,.344-.084c.1-.028.2-.059.285-.074.183-.04.356-.068.554-.127a6.662,6.662,0,0,0,1.365-.594.437.437,0,0,0,.087-.046c.111-.068.2-.158.316-.226a2.448,2.448,0,0,0,.436-.331c.015-.012.046-.012.046-.025a2.483,2.483,0,0,0,.381-.412.173.173,0,0,0,.074-.1.83.83,0,0,0,.068-.1,1.011,1.011,0,0,0,.127-.17,1.827,1.827,0,0,0,.161-.356c.028-.012.028-.025.028-.059a.131.131,0,0,0,.025-.068c.015-.074.046-.139.059-.229a1.4,1.4,0,0,0,.043-.356V342.8l1.963-169.472A3.442,3.442,0,0,1,75.066,173.97Z" transform="translate(-60.675 -169.62)" fill="#bc3a7d"/>
        <g id="Group_18455" data-name="Group 18455" transform="translate(1.965)">
          <path id="Path_156248" data-name="Path 156248" d="M72.015,173.143c2.445,1.436,2.433,3.739-.015,5.139a9.811,9.811,0,0,1-8.856-.087c-2.461-1.424-2.433-3.73.015-5.139A9.763,9.763,0,0,1,72.015,173.143Z" transform="translate(-61.31 -172.037)" fill="#db6ca5"/>
        </g>
      </g>
      <path id="Path_156249" data-name="Path 156249" d="M55.692,232.83c22.56,13.026,58.986,13.026,81.416,0,15.472-8.993,20.217-21.861,14.209-33.252h-11c6.389,9.766,2.873,21.17-10.605,29.011-18.391,10.689-48.284,10.689-66.8,0-13.58-7.841-17.208-19.261-10.918-29.011H41.1C35.234,210.97,40.1,223.822,55.692,232.83Z" transform="translate(0.223 58.233)" fill="#ffe85f"/>
      <path id="Path_156250" data-name="Path 156250" d="M153.917,204.681c-.059.594-.1,1.195-.214,1.808-.087.483-.229.966-.356,1.436-.158.585-.3,1.179-.514,1.749-.158.458-.384.913-.566,1.384-.272.61-.542,1.223-.854,1.808-.245.424-.5.854-.771,1.278-.412.669-.867,1.353-1.35,2.024-.486.625-.969,1.266-1.511,1.879-.146.139-.245.3-.387.455-.74.8-1.551,1.594-2.418,2.362-.57.511-1.2.994-1.811,1.483-.523.421-1.022.851-1.579,1.266-.653.467-1.365.922-2.077,1.378-.712.471-1.408.953-2.179,1.409-1.733,1-3.554,1.9-5.433,2.749-.542.242-1.1.471-1.653.7-1.464.616-2.975,1.195-4.513,1.724-.551.17-1.1.384-1.665.554-.969.316-1.966.582-2.959.854-.755.2-1.508.427-2.263.613-1.04.241-2.108.455-3.148.653-.74.17-1.48.328-2.22.455q-3.222.58-6.535.913c-.669.071-1.353.111-2.034.173-1.3.111-2.606.211-3.916.269-.811.028-1.634.056-2.461.056-1.056.028-2.1.043-3.145.028-.895-.028-1.78-.043-2.678-.084-.966-.031-1.935-.087-2.919-.158-.882-.056-1.746-.127-2.631-.214-.953-.1-1.91-.2-2.873-.325-.873-.1-1.743-.229-2.591-.356-1.028-.173-2.037-.347-3.052-.542-.792-.142-1.576-.313-2.359-.471-1.21-.269-2.421-.57-3.6-.882-.656-.17-1.313-.344-1.953-.532-2.12-.622-4.185-1.3-6.191-2.071-1.009-.415-2.021-.854-3-1.285-.455-.214-.941-.4-1.393-.61-1.455-.7-2.879-1.427-4.229-2.21-11.358-6.575-17.041-15.156-17.01-23.752l-.316,113c-.015,8.587,5.637,17.183,17,23.746,1.353.765,2.774,1.511,4.225,2.207.511.226,1.025.443,1.535.653.857.384,1.681.783,2.566,1.124.087.031.183.059.282.087,2.009.8,4.089,1.5,6.222,2.1.158.043.328.115.483.17.471.13.941.217,1.424.359,1.2.313,2.421.61,3.643.879.316.077.628.173.941.232.455.1.926.155,1.378.241,1.025.2,2.052.381,3.092.542.412.056.811.152,1.238.211.443.062.9.084,1.353.158.953.115,1.919.226,2.916.328.427.028.87.1,1.325.142.412.028.811.028,1.238.071,1,.056,1.99.115,2.978.152.48.019.966.062,1.449.077.384.012.768,0,1.152,0,1.068.012,2.124,0,3.176-.016.514-.015,1.04.016,1.554-.015.31-.012.61-.046.926-.056,1.319-.056,2.628-.158,3.941-.272.511-.04,1.009-.04,1.523-.084a3.507,3.507,0,0,1,.455-.071c2.207-.241,4.411-.542,6.578-.91.1-.034.2-.034.3-.059.613-.1,1.21-.26,1.8-.387,1.1-.207,2.179-.424,3.25-.693.752-.173,1.48-.4,2.219-.6,1.025-.269,2.034-.539,3.018-.851.2-.059.424-.115.613-.173.353-.112.653-.272,1.009-.384,1.551-.526,3.058-1.108,4.554-1.721.539-.245,1.1-.467,1.622-.7,1.879-.851,3.718-1.749,5.439-2.746.245-.142.467-.285.7-.412.526-.331.984-.669,1.483-.981.712-.455,1.421-.926,2.093-1.4.566-.427,1.068-.851,1.619-1.3.585-.464,1.2-.953,1.724-1.421.13-.115.272-.214.384-.316.74-.666,1.427-1.381,2.065-2.074.13-.146.257-.3.384-.458.371-.427.755-.854,1.111-1.312.158-.18.254-.4.4-.582.5-.653.944-1.34,1.356-2.006.183-.285.412-.557.582-.842.074-.142.111-.3.2-.44.3-.582.566-1.167.808-1.765a10.212,10.212,0,0,0,.511-1.068c.046-.13.062-.257.1-.384a13.317,13.317,0,0,0,.471-1.638c.111-.4.285-.811.368-1.226a3.008,3.008,0,0,1,.043-.325c.1-.573.145-1.155.2-1.737.031-.415.13-.827.13-1.238.012-.173.012-.341.012-.511l.316-112.981C154.059,203.554,153.973,204.124,153.917,204.681Z" transform="translate(0 64.665)" fill="url(#linear-gradient)"/>
    </g>
  </g>
</svg>
