<svg id="Group_23544" data-name="Group 23544" xmlns="http://www.w3.org/2000/svg" width="193.18" height="432.465" viewBox="0 0 193.18 432.465">
  <path id="Path_167606" data-name="Path 167606" d="M238.749,252.444l7.276,23.877,18.849-17.37s-.278-19.069,5.3-20.057c2.533-.445,4.317,9.258,4.317,9.258s14.342-17.184,18.484-11.591c1.952,2.643,5.079,15.306-16.174,31.854-20.89,24.713-25.691,38-39.213,38.134-10.766.106-15.641-43.8-15.641-43.8Z" transform="translate(-101.191 -115.922)" fill="#fec4ad"/>
  <path id="Path_167607" data-name="Path 167607" d="M223.861,252.042a7.151,7.151,0,0,0-1.5,1.233v0a160.542,160.542,0,0,0,5.189,23.533c11.979-8.514,17.944-16.948,17.944-16.948l-11.527-11.722S226.382,250.752,223.861,252.042Z" transform="translate(-100.656 -99.463)" fill="#fab498"/>
  <path id="Path_167608" data-name="Path 167608" d="M229.849,352.941c-1.959-.351-20.658,2.416-15.586,19.026,3.919,12.842,30.509,31.93,37.948,20.826C258.582,383.284,246.163,355.884,229.849,352.941Z" transform="translate(-112.273 36.334)" fill="#da1c5c"/>
  <path id="Path_167609" data-name="Path 167609" d="M236.908,399.864l-2.069-79.669-23.28-1.325s4.466,87.14,8.656,92.789,15.5,17.845,23.379,11.15C249.746,417.576,241.363,406.283,236.908,399.864Z" transform="translate(-114.651 -7.79)" fill="#fec4ad"/>
  <path id="Path_167610" data-name="Path 167610" d="M234.839,320.195l-23.28-1.325s.356,6.955.96,17.058a129.152,129.152,0,0,0,22.566-6.278Z" transform="translate(-114.651 -7.79)" fill="#fab498"/>
  <path id="Path_167611" data-name="Path 167611" d="M208.759,352.236c1.954-.393,20.7,2.014,15.951,18.718-3.667,12.918-29.879,32.52-37.535,21.565C180.62,383.133,192.5,355.5,208.759,352.236Z" transform="translate(-148.635 35.408)" fill="#da1c5c"/>
  <path id="Path_167612" data-name="Path 167612" d="M198.329,400.417,197.3,320.6l24.787-3.343s-2.753,88.9-6.833,94.628-15.148,18.144-23.156,11.6C185.838,418.377,194,406.924,198.329,400.417Z" transform="translate(-142.832 -9.882)" fill="#fec4ad"/>
  <path id="Path_167613" data-name="Path 167613" d="M193.074,320.6l.227,17.329a111.79,111.79,0,0,0,23.7,2.034c.556-13.072.863-22.706.863-22.706Z" transform="translate(-138.61 -9.882)" fill="#fab498"/>
  <path id="Path_167614" data-name="Path 167614" d="M192.091,295.009s-2.969,42.292-9.247,92.222c0,0,43.316,21.552,102.246-2.684,0,0,2.165-38.056-8.046-88.672l-40.4-25.808Z" transform="translate(-151.869 -71.046)" fill="#9c2a7b"/>
  <path id="Path_167615" data-name="Path 167615" d="M273.072,320.727s28.977-.728,31.055-42.733c1.481-29.985,3.754-63.837-14.273-82.4-19.439-20.013-60.563-13.118-73.258,4.156s-6,17.166-23.1,35.009-28.869,36.49-22.293,58.755,27.923,29.544,50.891,30.752C238.61,325.137,251.525,321.248,273.072,320.727Z" transform="translate(-169.354 -183.389)" fill="#262240"/>
  <path id="Path_167616" data-name="Path 167616" d="M283.207,204.848l-56.841,26.428a395.141,395.141,0,0,1-54.432,43.638c9.15,15.111,27.384,20.52,46.816,21.54,16.514.87,29.429-3.019,50.976-3.541,0,0,28.977-.728,31.055-42.733q.138-2.752.276-5.538C298.966,231.926,294.148,216.251,283.207,204.848Z" transform="translate(-166.009 -155.576)" fill="#262240" opacity="0.3" style="mix-blend-mode: multiply;isolation: isolate"/>
  <path id="Path_167617" data-name="Path 167617" d="M187.225,348.034s-3.846-76.6,7.506-97.273c18.647-33.967,70.757-24.777,74.861,6.032s3.476,53.217,2.588,92.107C272,356.518,200.414,357.2,187.225,348.034Z" transform="translate(-147.004 -124.071)" fill="#da1c5c"/>
  <path id="Path_167618" data-name="Path 167618" d="M186.6,268.258c-.053,13.035.321,24.015.512,28.722,46.963-9.081,70.79-30.339,70.79-30.339S215.233,267.455,186.6,268.258Z" transform="translate(-147.004 -75.484)" fill="#a7a9ac" opacity="0.2" style="mix-blend-mode: multiply;isolation: isolate"/>
  <path id="Path_167619" data-name="Path 167619" d="M205.249,256.583l1.846,16.038s21.12-1.049,40.51-6.31l5.226,16.009s-51.27,14.039-64.994,9.083c-7.988-2.884-5.375-31.22-5.375-31.22Z" transform="translate(-152.893 -88.521)" fill="#fec4ad"/>
  <path id="Path_167620" data-name="Path 167620" d="M205.286,261.23l.294-1.688-.34-2.96-22.787,3.6s-.319,3.483-.393,8.128C194.044,265.04,205.286,261.23,205.286,261.23Z" transform="translate(-152.884 -88.521)" fill="#fab498"/>
  <path id="Path_167621" data-name="Path 167621" d="M207.92,234.483s4.227,28.839,4.746,53.486c0,0-10.537,2.778-30.419.859C182.247,288.828,180.4,243.2,207.92,234.483Z" transform="translate(-152.677 -117.166)" fill="#da1c5c"/>
  <path id="Path_167622" data-name="Path 167622" d="M218.065,233.323s31.342,6.882,32.988,45.746c0,0-19.772,9.49-30.743,11.285Z" transform="translate(-106.218 -118.669)" fill="#da1c5c"/>
  <path id="Path_167623" data-name="Path 167623" d="M262.788,238.972c-14.681-12.923-42.044-14.112-58.384,2.707-10.5,3.692-16.58,12.87-20.1,22.633a161.359,161.359,0,0,0,41.043,4.762c22.842-.223,43.89-4.944,60.87-12.739A44.367,44.367,0,0,0,262.788,238.972Z" transform="translate(-149.974 -124.059)" fill="#da1c5c" opacity="0" style="mix-blend-mode: multiply;isolation: isolate"/>
  <path id="Path_167624" data-name="Path 167624" d="M241.446,267.468c-.909-6.751-21.14-1.063-21.14-1.063s6.475-7.29,1.594-10.158c-2.126-1.249-13.6,10.385-15.526,13.646a105.6,105.6,0,0,1,5.8,14.677C238.388,281.04,242.245,273.39,241.446,267.468Z" transform="translate(-121.373 -89.078)" fill="#fec4ad"/>
  <path id="Path_167625" data-name="Path 167625" d="M220.827,228.684s-19.017.184-24,9.529c-5.655,10.615,17.921,17.577,24.587,7.793,0,0,13.21,10.858,24.084-.657C252.488,237.949,238.126,225.98,220.827,228.684Z" transform="translate(-134.867 -125.188)" fill="#fff"/>
  <path id="Path_167626" data-name="Path 167626" d="M201.956,223.492l.181,18.594s10.232,9.2,23.666.193l.661-19.026Z" transform="translate(-127.098 -131.721)" fill="#fec4ad"/>
  <path id="Path_167627" data-name="Path 167627" d="M202.075,235.783a35.726,35.726,0,0,0,9.3.719,28.763,28.763,0,0,0,14.81-4.4l.276-8.852-24.509.239Z" transform="translate(-127.098 -131.721)" fill="#fab498"/>
  <path id="Path_167628" data-name="Path 167628" d="M202.988,216.423l-3.2-8.445s-11.175-2.567-10.181,8.128,5.942,14.665,13.942,11.465Z" transform="translate(-143.188 -151.87)" fill="#fec4ad"/>
  <path id="Path_167629" data-name="Path 167629" d="M194.15,220.82s-5.357,45.555,32.548,43.847,28.054-50.682,28.054-50.682-14.337,5.667-32.722-16.185C222.029,197.8,214.144,212.6,194.15,220.82Z" transform="translate(-137.553 -164.713)" fill="#fec4ad"/>
  <path id="Path_167630" data-name="Path 167630" d="M198.2,219.32c.023,2.464-1.355,4.477-3.079,4.491s-3.143-1.965-3.166-4.429,1.355-4.473,3.079-4.491S198.172,216.859,198.2,219.32Z" transform="translate(-140.062 -142.56)" fill="#da1c5c"/>
  <path id="Path_167631" data-name="Path 167631" d="M194.258,209.746s.1,10.7,2.494,11.575,2.223-15.784,2.223-15.784" transform="translate(-137.075 -154.683)" fill="#262240"/>
</svg>
