<svg xmlns="http://www.w3.org/2000/svg" id="prefix__brands-and-logotypes_1_" width="25.002" height="25.002" data-name="brands-and-logotypes (1)" viewBox="0 0 25.002 25.002">
    <path id="prefix__Path_167457" d="M5.86 107.822a6.6 6.6 0 0 1 .934-3.393v-4.215H2.579a12.507 12.507 0 0 0 0 15.215h4.215v-4.215a6.6 6.6 0 0 1-.934-3.392z" data-name="Path 167457" transform="translate(0 -95.321)" style="fill:#fbbd00"/>
    <path id="prefix__Path_167458" d="M198.93 373.891l-2.93 2.93 2.93 2.93a12.406 12.406 0 0 0 7.607-2.579v-4.21h-4.21a6.64 6.64 0 0 1-3.397.929z" data-name="Path 167458" transform="translate(-186.429 -354.749)" style="fill:#0f9d58"/>
    <path id="prefix__Path_167459" d="M57.038 325.477l-4.215 4.215a12.7 12.7 0 0 0 1.082 1.232 12.419 12.419 0 0 0 8.84 3.661v-5.86a6.644 6.644 0 0 1-5.707-3.248z" data-name="Path 167459" transform="translate(-50.244 -309.583)" style="fill:#31aa52"/>
    <path id="prefix__Path_167460" d="M268.5 200.189a12.609 12.609 0 0 0-.2-2.265l-.11-.6H256v5.86h5.931a6.611 6.611 0 0 1-2.531 2.716l4.21 4.21a12.706 12.706 0 0 0 1.232-1.082 12.419 12.419 0 0 0 3.658-8.839z" data-name="Path 167460" transform="translate(-243.499 -187.688)" style="fill:#3c79e6"/>
    <path id="prefix__Path_167461" d="M203.626 7.8l.518.518 4.144-4.143-.518-.518A12.419 12.419 0 0 0 198.93 0L196 2.93l2.93 2.93a6.6 6.6 0 0 1 4.696 1.94z" data-name="Path 167461" transform="translate(-186.429)" style="fill:#cf2d48"/>
    <path id="prefix__Path_167462" d="M62.744 5.86V0A12.419 12.419 0 0 0 53.9 3.661a12.689 12.689 0 0 0-1.082 1.232l4.215 4.215a6.644 6.644 0 0 1 5.711-3.248z" data-name="Path 167462" transform="translate(-50.243)" style="fill:#eb4132"/>
</svg>
