<svg xmlns="http://www.w3.org/2000/svg" width="14.995" height="14.995" viewBox="0 0 14.995 14.995"><defs><style>.a{fill:#000;}</style></defs><g transform="translate(0 -0.001)"><g transform="translate(0 0.001)"><path class="a" d="M14.181,6.452H8.544V.815A1.011,1.011,0,0,0,7.5,0,1.011,1.011,0,0,0,6.451.815V6.452H.814A1.011,1.011,0,0,0,0,7.5,1.011,1.011,0,0,0,.814,8.545H6.451v5.638A1.011,1.011,0,0,0,7.5,15a1.011,1.011,0,0,0,1.046-.814V8.545h5.638A1.011,1.011,0,0,0,14.995,7.5,1.011,1.011,0,0,0,14.181,6.452Z" transform="translate(0 -0.001)"/></g></g></svg>