<svg xmlns="http://www.w3.org/2000/svg" width="20.998" height="21" viewBox="0 0 20.998 21">
  <defs>
    <style>
      .cls-1 {
        fill: #9b9b9b;
      }
    </style>
  </defs>
  <g id="nut-icon" transform="translate(-0.002)">
    <g id="Group_1342" data-name="Group 1342" transform="translate(0.002)">
      <g id="Group_1341" data-name="Group 1341">
        <circle id="Ellipse_148" data-name="Ellipse 148" class="cls-1" cx="1.81" cy="1.81" r="1.81" transform="translate(8.69 8.69)"/>
        <path id="Path_342" data-name="Path 342" class="cls-1" d="M20.574,8.706l-2.529-.474a7.781,7.781,0,0,0-.605-1.464L18.9,4.628a.543.543,0,0,0-.063-.665l-1.8-1.805a.542.542,0,0,0-.665-.062L14.231,3.56a7.82,7.82,0,0,0-1.509-.617L12.25.427A.543.543,0,0,0,11.736,0H9.184a.544.544,0,0,0-.515.427L8.192,2.968a7.8,7.8,0,0,0-1.448.6L4.631,2.127a.543.543,0,0,0-.665.062L2.161,3.994a.544.544,0,0,0-.062.665L3.553,6.786a7.842,7.842,0,0,0-.6,1.447L.428,8.706A.544.544,0,0,0,0,9.221v2.552a.545.545,0,0,0,.426.515l2.528.474a7.823,7.823,0,0,0,.608,1.476l-1.438,2.1a.542.542,0,0,0,.062.665l1.8,1.8a.544.544,0,0,0,.665.063l2.1-1.439a7.855,7.855,0,0,0,1.433.6l.476,2.542A.543.543,0,0,0,9.184,21h2.552a.543.543,0,0,0,.515-.426l.472-2.517a7.9,7.9,0,0,0,1.493-.608l2.129,1.457a.542.542,0,0,0,.665-.063l1.8-1.8a.543.543,0,0,0,.063-.665l-1.448-2.116a7.852,7.852,0,0,0,.618-1.494l2.527-.474A.545.545,0,0,0,21,11.774V9.222A.541.541,0,0,0,20.574,8.706ZM10.5,14.88A4.38,4.38,0,1,1,14.883,10.5,4.38,4.38,0,0,1,10.5,14.88Z" transform="translate(-0.002)"/>
      </g>
    </g>
  </g>
</svg>
