<svg xmlns="http://www.w3.org/2000/svg" width="225.102" height="243.253" viewBox="0 0 225.102 243.253">
  <g id="Group_23553" data-name="Group 23553" transform="translate(68.298)">
    <g id="Group_23552" data-name="Group 23552" transform="translate(1.353 0)">
      <g id="Group_23551" data-name="Group 23551">
        <path id="Path_167656" data-name="Path 167656" d="M123.959,297.613l7.858,47.82c1.355,6.29,10.773,10.515,28.9,10.795s27.04-3.667,29.216-9.906l8.7-48.195Z" transform="translate(-118.327 -188.045)" fill="#ffab31"/>
        <path id="Path_167657" data-name="Path 167657" d="M204.039,299.293c-.108,7.1-18.455,12.583-40.979,12.244s-40.7-6.387-40.587-13.493,18.455-12.583,40.983-12.238S204.149,292.189,204.039,299.293Z" transform="translate(-119.808 -199.821)" fill="#c45e3c"/>
        <path id="Path_167658" data-name="Path 167658" d="M123.688,298.1c5.621,5.026,20.537,8.791,38.162,9.06s32.649-3.042,38.422-7.888c-5.619-5.028-20.537-8.787-38.162-9.062S129.463,293.245,123.688,298.1Z" transform="translate(-118.597 -195.439)" fill="#9f473c"/>
        <path id="Path_167659" data-name="Path 167659" d="M138.662,344.667s-25.613-89.821-14.908-92.174,33.24,83.673,34.693,90.9C158.446,343.4,157.079,350.914,138.662,344.667Z" transform="translate(-121.138 -233.035)" fill="#33b37e"/>
        <path id="Path_167660" data-name="Path 167660" d="M164.764,344.809s28.352-89,17.719-91.675-35.779,82.6-37.458,89.8C145.025,342.935,146.165,350.488,164.764,344.809Z" transform="translate(-97.345 -232.41)" fill="#33b37e"/>
        <path id="Path_167661" data-name="Path 167661" d="M142.924,334.707c-.3-.946-20.571-70.6-16.8-70.862s21.8,71.874,21.8,71.874" transform="translate(-116.637 -221.681)" fill="#336865"/>
        <path id="Path_167662" data-name="Path 167662" d="M153.728,334.691c.329-.938,22.723-69.942,18.96-70.311s-23.994,71.17-23.994,71.17" transform="translate(-93.69 -221.149)" fill="#336865"/>
        <path id="Path_167663" data-name="Path 167663" d="M136.814,356.758s1.122-114.2,11.785-114.037c11.922.18,14.579,113.814,14.579,113.814S153.1,358.9,136.814,356.758Z" transform="translate(-105.523 -242.721)" fill="#33817e"/>
        <path id="Path_167664" data-name="Path 167664" d="M142.683,348s-2.313-94.8,1.146-95.062,4.186,95.462,4.186,95.462" transform="translate(-100.432 -232.541)" fill="#336865"/>
        <path id="Path_167665" data-name="Path 167665" d="M163.138,305.422c-22.525-.347-40.7-6.387-40.587-13.493l-.156,10.038c-.108,7.106,18.064,13.142,40.587,13.485s40.871-5.134,40.979-12.236l.156-10.038C204.009,300.283,185.662,305.762,163.138,305.422Z" transform="translate(-119.885 -193.707)" fill="#ff7f31"/>
      </g>
      <path id="Path_167666" data-name="Path 167666" d="M189.21,330.036l2.267-12.557c-1.8-4.968-5.078-12.254-8.709-12.02-2.842.184-6.2,8.839-7.9,13.8-1.591-4.753-5.242-14.056-9.333-13.8-2.365.156-5.09,6.182-6.916,11.066-1.868-4.892-4.958-11.278-8.357-11.066-2.733.178-5.948,8.2-7.707,13.23-1.679-4.884-5.2-13.477-9.14-13.23-2.483.164-5.369,6.817-7.192,11.8l2.475,15.046c1.242,1.868,2.7,3.381,4.327,3.721,3.505.723,7.194-6.2,9.152-10.6,1.369,3.693,4.146,9.861,7.691,10.6,3.052.629,6.236-4.533,8.3-8.783,1.511,3.617,3.966,8.156,6.974,8.783,3.643.754,7.473-6.745,9.369-11.086,1.289,3.6,4.158,10.314,7.866,11.086C184.773,336.517,187.254,333.438,189.21,330.036Z" transform="translate(-116.076 -180.236)" fill="#ff7f31"/>
    </g>
    <path id="Path_167667" data-name="Path 167667" d="M208.966,330.352c0,5.194-19.813,9.4-44.252,9.4s-44.254-4.21-44.254-9.4,19.815-9.4,44.254-9.4S208.966,325.161,208.966,330.352Z" transform="translate(-120.46 -164.801)" fill="#a7a9ac" style="mix-blend-mode: multiply;isolation: isolate"/>
  </g>
</svg>
