<svg id="Group_23563" data-name="Group 23563" xmlns="http://www.w3.org/2000/svg" width="44.807" height="59.279" viewBox="0 0 44.807 59.279">
  <path id="Path_167692" data-name="Path 167692" d="M245.905,427.664s-16.656-4.7-18.731-51.266c0,0,21.981,23.926,25.341,50.976Z" transform="translate(-226.856 -369.011)" fill="#33817e"/>
  <path id="Path_167693" data-name="Path 167693" d="M259.345,425.08s16.2-6.125,15.167-56.16c0,0-25.572,30.667-21.617,57.637Z" transform="translate(-229.752 -368.155)" fill="#33b37e"/>
  <path id="Path_167694" data-name="Path 167694" d="M245.864,427.664l4.143-.182c-.018-.023-.03-.045-.049-.069-7.822-10.122-22.825-51.015-22.825-51.015C223.94,424.641,245.864,427.664,245.864,427.664Z" transform="translate(-226.815 -369.011)" fill="#336865"/>
  <path id="Path_167695" data-name="Path 167695" d="M274.37,368.056s-10.906,45-22.233,59.279l6.633-1.52S275.432,419.517,274.37,368.056Z" transform="translate(-229.713 -368.056)" fill="#33817e"/>
</svg>
