<svg xmlns="http://www.w3.org/2000/svg" width="51.046" height="63.186" viewBox="0 0 51.046 63.186">
  <g id="Group_23565" data-name="Group 23565" transform="translate(10.532 -574.169)">
    <g id="Group_23559" data-name="Group 23559" transform="translate(-10.532 574.169)">
      <path id="Path_167684" data-name="Path 167684" d="M112.574,355.822a14.449,14.449,0,0,1,2.095-6.17c.77-1.233,2.346-2.41,2.715-3.718-3.4-.22-5.622,1.515-7.808,4.031-4.134,4.759-9.225,8.425-9.048,14.965a13.463,13.463,0,0,1-3.011,9.148c-2.126,2.522-5.627,3.461-7.749,5.863-3.766,4.267-4.246,14.185-1.328,19.07l1.341,2.952c9.018-.2,15.556-6.96,18.179-14.817.984-2.951,1.147-6.071,2.221-9,1-2.721,3.02-4.026,4.3-6.487C117.547,365.794,112.141,361.29,112.574,355.822Z" transform="translate(-86.552 -345.915)" fill="#da1c5c"/>
      <path id="Path_167685" data-name="Path 167685" d="M116.688,349.664c.77-1.233,2.346-2.41,2.715-3.718a16.113,16.113,0,0,0-8.667,13.5c-.6,9.863.9,10.76-5.678,20.622C99.1,389,92.653,392.537,91.716,401.791l.084.186c9.018-.2,15.556-6.96,18.179-14.817.984-2.951,1.147-6.071,2.221-9,1-2.721,3.02-4.026,4.3-6.487,3.061-5.864-2.344-10.368-1.911-15.836A14.449,14.449,0,0,1,116.688,349.664Z" transform="translate(-88.571 -345.927)" fill="#a7a9ac" opacity="0.4" style="mix-blend-mode: multiply;isolation: isolate"/>
    </g>
    <g id="Group_23560" data-name="Group 23560" transform="translate(-1.213 596.838)">
      <path id="Path_167686" data-name="Path 167686" d="M102.5,420.4c-1.861-4.237.644-10.864,3.324-14.307,3.08-3.956,8.316-5.553,12.921-7.085,5.934-1.972,11.165-2.724,15.017-7.4,3.457-4.2,5.6-8.443,9.387-8.475,1.338,2.444-.635,9.339-2.889,13.379-3.6,6.46-9.1,8.569-12.566,14.382-3.378,5.666-4.866,11.389-12.3,12.561-3.058.482-14,.451-12.993-4.775" transform="translate(-101.852 -383.134)" fill="#2b3990"/>
      <path id="Path_167687" data-name="Path 167687" d="M129.31,400.143c-12.55,4.414-14.339,9.969-18.471,15.2-1.7,2.147-4.715,3.882-7.757,5.194,1.624,3.366,10.142,3.336,12.783,2.919,7.439-1.172,8.927-6.895,12.305-12.561,3.466-5.813,8.961-7.922,12.566-14.382,2.255-4.041,4.228-10.935,2.889-13.379C143.625,383.134,141.86,395.728,129.31,400.143Z" transform="translate(-102.333 -383.134)" fill="#262262"/>
    </g>
  </g>
</svg>
