<svg xmlns="http://www.w3.org/2000/svg" width="50.238" height="62.186" viewBox="0 0 50.238 62.186">
  <g id="Group_23566" data-name="Group 23566" transform="translate(-1243.503 -574.169)">
    <g id="Group_23561" data-name="Group 23561" transform="translate(1263.398 574.169)">
      <path id="Path_167688" data-name="Path 167688" d="M622.653,355.665a14.218,14.218,0,0,0-2.061-6.072c-.758-1.213-2.309-2.372-2.672-3.659,3.347-.217,5.532,1.491,7.684,3.968,4.068,4.684,9.08,8.292,8.905,14.729a13.247,13.247,0,0,0,2.963,9c2.092,2.482,5.539,3.407,7.627,5.771,3.706,4.2,4.179,13.961,1.307,18.769l-1.32,2.9c-8.874-.192-15.31-6.85-17.891-14.582-.969-2.9-1.129-5.975-2.186-8.861-.979-2.678-2.971-3.962-4.236-6.384C617.759,365.479,623.079,361.046,622.653,355.665Z" transform="translate(-617.92 -345.915)" fill="#2b3990"/>
      <path id="Path_167689" data-name="Path 167689" d="M620.592,349.6c-.758-1.213-2.309-2.372-2.672-3.659a15.857,15.857,0,0,1,8.529,13.282c.589,9.707-.882,10.59,5.589,20.3,5.862,8.794,12.207,12.276,13.13,21.384l-.083.183c-8.874-.192-15.31-6.85-17.891-14.582-.969-2.9-1.129-5.974-2.186-8.861-.979-2.678-2.971-3.962-4.236-6.384-3.013-5.771,2.307-10.2,1.88-15.586A14.218,14.218,0,0,0,620.592,349.6Z" transform="translate(-617.92 -345.927)" fill="#a7a9ac" opacity="0.4" style="mix-blend-mode: multiply;isolation: isolate"/>
    </g>
    <g id="Group_23562" data-name="Group 23562" transform="translate(1243.503 596.479)">
      <path id="Path_167690" data-name="Path 167690" d="M625.164,419.813c1.832-4.17-.634-10.692-3.271-14.081-3.032-3.893-8.185-5.466-12.717-6.973-5.84-1.94-10.988-2.681-14.779-7.285-3.4-4.133-5.509-8.31-9.239-8.34-1.316,2.405.625,9.191,2.844,13.168,3.547,6.358,8.956,8.433,12.367,14.155,3.324,5.577,4.789,11.209,12.11,12.362,3.01.474,13.78.444,12.787-4.7" transform="translate(-584.73 -383.134)" fill="#da1c5c"/>
      <path id="Path_167691" data-name="Path 167691" d="M599.248,399.874c12.352,4.344,14.111,9.811,18.178,14.96,1.669,2.113,4.64,3.82,7.634,5.112-1.6,3.312-9.982,3.283-12.581,2.873-7.321-1.153-8.786-6.785-12.11-12.362-3.411-5.722-8.82-7.8-12.367-14.155-2.22-3.977-4.161-10.762-2.844-13.168C585.158,383.134,586.9,395.528,599.248,399.874Z" transform="translate(-584.73 -383.134)" fill="#a7a9ac" opacity="0.5" style="mix-blend-mode: multiply;isolation: isolate"/>
    </g>
  </g>
</svg>
