<svg id="Group_23564" data-name="Group 23564" xmlns="http://www.w3.org/2000/svg" width="62.287" height="57.357" viewBox="0 0 62.287 57.357">
  <path id="Path_167696" data-name="Path 167696" d="M490.136,421.329s15.75-3.63,19.786-46.975c0,0-21.583,21.325-25.939,46.405Z" transform="translate(-447.658 -365.462)" fill="#33817e"/>
  <path id="Path_167697" data-name="Path 167697" d="M490.546,421.329l-3.855-.357c.018-.02.031-.039.048-.061,7.753-9.089,23.593-46.556,23.593-46.556C511.135,419.5,490.546,421.329,490.546,421.329Z" transform="translate(-448.067 -365.462)" fill="#336865"/>
  <path id="Path_167698" data-name="Path 167698" d="M468.088,425.706s-15.58,1.786-26.9-30.964c0,0,24.176,10.354,32.642,28.71Z" transform="translate(-441.189 -368.544)" fill="#33817e"/>
  <path id="Path_167699" data-name="Path 167699" d="M468.088,425.706l3.6-1.412c-.02-.012-.036-.024-.056-.035-8.931-4.837-30.442-29.517-30.442-29.517C448.224,430.323,468.088,425.706,468.088,425.706Z" transform="translate(-441.189 -368.544)" fill="#336865"/>
  <path id="Path_167700" data-name="Path 167700" d="M477.588,417.783s-14.834-6.442-11.614-53.069c0,0,22.469,29.759,17.563,54.739Z" transform="translate(-444.867 -364.005)" fill="#33b37e"/>
  <path id="Path_167701" data-name="Path 167701" d="M466.128,363.879s8.141,42.47,18.061,56.3l-6.118-1.717S462.815,411.832,466.128,363.879Z" transform="translate(-444.888 -363.879)" fill="#33817e"/>
</svg>
