<svg xmlns="http://www.w3.org/2000/svg" width="225.102" height="241.95" viewBox="0 0 225.102 241.95">
  <g id="Group_23557" data-name="Group 23557" transform="translate(67.551)">
    <g id="Group_23556" data-name="Group 23556" transform="translate(0 0)">
      <g id="Group_23555" data-name="Group 23555">
        <g id="Group_23554" data-name="Group 23554">
          <path id="Path_167668" data-name="Path 167668" d="M588.229,297.613l7.859,47.82c1.357,6.29,10.772,10.515,28.9,10.795s27.038-3.667,29.216-9.906l8.7-48.195Z" transform="translate(-582.352 -189.348)" fill="#ffab31"/>
          <path id="Path_167669" data-name="Path 167669" d="M668.308,299.293c-.108,7.1-18.453,12.583-40.977,12.244s-40.7-6.387-40.589-13.493,18.457-12.583,40.983-12.238S668.418,292.189,668.308,299.293Z" transform="translate(-583.834 -201.125)" fill="#c45e3c"/>
          <path id="Path_167670" data-name="Path 167670" d="M587.956,298.1c5.625,5.026,20.539,8.791,38.166,9.06s32.651-3.042,38.42-7.888c-5.619-5.028-20.537-8.787-38.164-9.062S593.734,293.245,587.956,298.1Z" transform="translate(-582.624 -196.743)" fill="#9f473c"/>
          <path id="Path_167671" data-name="Path 167671" d="M623.852,326.881c.008-6.076,2.373-11.236,2.669-17.038.226-4.433-2.393-6.587-3.593-10.306-1.229-3.812-.892-8.775-.335-12.659a44.416,44.416,0,0,0,.611-10.9c-.5-4.611-3.769-7.182-4.924-11.393-1.27-4.625,2.87-19.036-3.735-20.983-11.4-3.357-8.99,30.811-8.99,34.622,0,5.986-2,10.873-2.643,16.635-.693,6.238,1.753,11.13,2.385,17.226.771,7.419-2.032,11.843-3.808,18.711-1.635,6.316,2.429,10.863,2.737,16.957.255,5.076-2.763,13.937,3.713,15.521,4.068,1,13.589.661,16.5-2.862,2.513-3.038,1.222-11.386,1.074-14.994C625.26,339.165,623.844,333.125,623.852,326.881Z" transform="translate(-569.53 -243.374)" fill="#33817e"/>
          <path id="Path_167672" data-name="Path 167672" d="M610.879,346.535c-2.824-6.876,2.88-16.717,6.4-22.346,4.824-7.709,2.263-14.729,2.245-23.232-.02-9.429,8.134-13.881,11.32-22.29,1.3-3.439.279-7.306,1.721-10.737,1.745-4.148,6.709-6.491,10.321-8.89,1.557-1.034,3.918-3.659,4.866-2.966,1.713,1.637-2.583,15.2-2.962,22.947-.234,4.807,2.134,8.952.932,13.879-.99,4.056-3.679,6.324-5.651,9.713-1.942,3.333-1.721,7.479-1.914,11.254-.262,5.032-1.052,8.124-3.663,12.36-2.791,4.523-3.936,8.625-5.906,13.406-2.152,5.224-9.667,9.7-15.384,9.232" transform="translate(-560.549 -230.839)" fill="#33b37e"/>
          <path id="Path_167673" data-name="Path 167673" d="M618.165,335.718c.3-.94,20.557-69.976,17.172-70.337s-21.7,71.2-21.7,71.2" transform="translate(-557.046 -221.455)" fill="#336865"/>
          <path id="Path_167674" data-name="Path 167674" d="M622.563,346.535c2.824-6.876-2.88-16.717-6.4-22.346-4.824-7.709-2.263-14.729-2.246-23.232.02-9.429-8.134-13.881-11.32-22.29-1.3-3.439-.281-7.306-1.721-10.737-1.744-4.148-6.708-6.491-10.321-8.89-1.557-1.034-3.918-3.659-4.866-2.966-1.713,1.637,2.583,15.2,2.962,22.947.234,4.807-2.136,8.952-.932,13.879.99,4.056,3.679,6.324,5.651,9.713,1.942,3.333,1.721,7.479,1.914,11.254.261,5.032,1.052,8.124,3.663,12.36,2.788,4.523,3.936,8.625,5.906,13.406,2.152,5.224,9.667,9.7,15.383,9.232" transform="translate(-585.285 -230.839)" fill="#33b37e"/>
          <path id="Path_167675" data-name="Path 167675" d="M607.315,335.718c-.3-.94-20.557-69.976-17.172-70.337s21.7,71.2,21.7,71.2" transform="translate(-580.825 -221.455)" fill="#336865"/>
          <path id="Path_167676" data-name="Path 167676" d="M606.95,348s-2.309-94.8,1.148-95.062,4.188,95.462,4.188,95.462" transform="translate(-564.458 -233.845)" fill="#336865"/>
          <path id="Path_167677" data-name="Path 167677" d="M627.408,305.422c-22.525-.347-40.7-6.387-40.589-13.493l-.154,10.038c-.11,7.106,18.062,13.142,40.589,13.485s40.871-5.134,40.977-12.236l.154-10.038C668.277,300.283,649.932,305.762,627.408,305.422Z" transform="translate(-583.91 -195.01)" fill="#ff7f31"/>
        </g>
      </g>
      <path id="Path_167678" data-name="Path 167678" d="M656.634,312.953c-21.459,6.92-29.983.275-47.073-4.359-8.755-2.373-15.12-.842-19.5,1.583l2.713,16.5c7.838-4.445,19.942-8.186,34.082-1.776,11.2,5.076,20.176,5.858,26.681,5.186Z" transform="translate(-580.523 -179.592)" fill="#ff7f31"/>
    </g>
    <path id="Path_167679" data-name="Path 167679" d="M674.165,330.352c0,5.194-19.813,9.4-44.252,9.4s-44.254-4.21-44.254-9.4,19.815-9.4,44.254-9.4S674.165,325.161,674.165,330.352Z" transform="translate(-584.912 -166.104)" fill="#a7a9ac" style="mix-blend-mode: multiply;isolation: isolate"/>
  </g>
</svg>
